<svg width="261" height="29" fill="none" xmlns="http://www.w3.org/2000/svg"><path d="M35.5 20V7.5H59V10H38v2.5h11V15H38v2.5h21V20H35.5zm-25.041.352c-2.432-.016-4.459-.86-6.08-2.535-1.621-1.69-2.424-3.76-2.408-6.208.016-2.432.845-4.483 2.488-6.152 1.643-1.67 3.72-2.496 6.232-2.48 1.456.01 2.686.241 3.691.696 1.021.455 1.977 1.109 2.868 1.963l-1.91 2.171C13.845 6.406 12.28 5.7 10.65 5.69c-1.6-.01-2.932.557-3.996 1.702C5.607 8.536 5.078 9.95 5.067 11.63c-.01 1.664.508 3.083 1.556 4.258 1.049 1.159 2.365 1.743 3.95 1.754.96.006 1.808-.165 2.546-.512.739-.363 1.502-.91 2.291-1.641l1.884 1.932c-.95.986-1.956 1.723-3.015 2.213-1.059.489-2.332.729-3.82.719zm9.487-.083a10.575 10.575 0 01-1.703-.179l.232-2.374c.255.065.535.1.839.101.336.002.608-.044.817-.139.224-.094.45-.333.676-.715.243-.399.43-.957.563-1.677.133-.719.243-1.726.332-3.022.088-1.311.139-2.91.15-4.799l9.577.062-.082 12.672-2.904-.019.066-10.176-3.96-.025c-.012 1.808-.094 3.343-.246 4.606s-.35 2.262-.596 2.996c-.228.735-.552 1.309-.97 1.722-.403.398-.813.659-1.23.784-.417.126-.937.186-1.56.182zm42.347 3.178l.036-5.544 1.368.009c.956-1.882 1.446-4.75 1.471-8.607l.01-1.56 9.816.064-.066 10.175 1.8.012-.42 5.542-2.424-.016.02-3.048-8.88-.058-.307 3.047-2.424-.016zm4.38-5.516l5.351.035.05-7.68-4.176-.027-.01 1.68c-.016 2.352-.42 4.35-1.216 5.992zm15.021 6.505a6.2 6.2 0 01-2.995-.787l.998-2.154c.59.324 1.157.488 1.701.491.416.003.76-.107 1.034-.329.274-.206.532-.58.776-1.123L78.01 7.828l3.096.02 3.539 9.431 3.348-9.386 3.024.02-5.124 12.998c-.52 1.293-1.094 2.201-1.721 2.725-.628.54-1.454.807-2.478.8zm22.984-3.475c-1.664-.011-3.053-.524-4.166-1.54-1.097-1.03-1.76-2.339-1.99-3.924l-2.185-.014-.033 5.136-2.88-.019.082-12.672 2.88.019-.033 5.136 2.184.014c.266-1.55.962-2.826 2.089-3.827 1.142-1.016 2.537-1.52 4.185-1.509 1.872.012 3.388.654 4.548 1.926 1.16 1.271 1.734 2.843 1.722 4.715-.012 1.84-.614 3.396-1.807 4.668-1.192 1.273-2.724 1.903-4.596 1.89zm.064-2.52c1.088.007 1.931-.371 2.528-1.136.613-.78.923-1.754.931-2.922.007-1.152-.307-2.122-.941-2.91-.619-.788-1.457-1.185-2.513-1.192-1.088-.007-1.93.371-2.527 1.136-.597.764-.899 1.738-.907 2.922-.008 1.152.298 2.122.917 2.91.619.788 1.456 1.185 2.512 1.192zm26.304 5.45l.02-3.048-17.064-.11.082-12.672 2.904.02-.066 10.175 4.68.03.066-10.176 2.88.019-.066 10.176 4.68.03.066-10.176 2.903.019-.065 10.176 1.8.011-.396 5.542-2.424-.016zm15.853-2.945l-2.88-.019.01-1.56c-1.032 1.21-2.404 1.808-4.116 1.797-1.264-.008-2.333-.359-3.209-1.052-.859-.71-1.285-1.689-1.277-2.937.009-1.36.487-2.389 1.436-3.086.949-.698 2.191-1.042 3.727-1.032 1.232.008 2.399.191 3.5.55l.002-.24c.005-.88-.262-1.553-.803-2.02-.525-.468-1.292-.705-2.3-.712-1.152-.007-2.361.249-3.629.769l-.777-2.333c1.573-.694 3.183-1.036 4.831-1.025 1.84.012 3.221.485 4.143 1.419.938.934 1.402 2.257 1.39 3.969l-.048 7.512zm-2.778-4.602l.004-.72c-.862-.342-1.828-.516-2.9-.523-.912-.006-1.626.165-2.14.514-.514.349-.773.843-.777 1.483a1.6 1.6 0 00.687 1.373c.462.338 1.044.51 1.748.515.976.006 1.778-.237 2.405-.729.643-.492.968-1.13.973-1.913zm5.08 4.616l3.534-4.729c-.894-.278-1.611-.738-2.151-1.382-.523-.66-.782-1.469-.776-2.429.008-1.248.455-2.245 1.339-2.991.885-.746 2.112-1.115 3.68-1.104l6.359.04-.081 12.672-2.904-.018.027-4.272-2.592-.017-3.027 4.253-3.408-.023zm5.993-6.417l3.048.02.025-3.864-3.072-.02c-.768-.005-1.377.167-1.827.516-.434.333-.653.796-.657 1.388-.004.608.217 1.09.663 1.444.461.34 1.068.511 1.82.516zm16.719 10.404l.107-16.511 2.904.018-.014 2.112c1.131-1.576 2.568-2.36 4.312-2.348 1.6.01 2.98.62 4.14 1.827 1.16 1.191 1.734 2.803 1.721 4.835-.013 2-.607 3.596-1.783 4.789-1.176 1.176-2.564 1.76-4.164 1.749-1.744-.011-3.171-.765-4.281-2.26l-.038 5.808-2.904-.019zm6.568-6.053c1.024.006 1.882-.364 2.575-1.112.709-.747 1.067-1.737 1.075-2.969.008-1.2-.338-2.178-1.037-2.935-.699-.756-1.553-1.138-2.561-1.144-1.008-.007-1.882.372-2.623 1.135-.725.763-1.091 1.745-1.099 2.945-.008 1.184.346 2.162 1.061 2.935.731.757 1.601 1.138 2.609 1.145zm20.167 2.386l-2.88-.019.01-1.56c-1.032 1.21-2.404 1.809-4.116 1.798-1.264-.008-2.333-.36-3.209-1.053-.859-.71-1.285-1.688-1.277-2.936.009-1.36.487-2.39 1.436-3.087.948-.698 2.191-1.042 3.727-1.032a11.5 11.5 0 013.5.55l.002-.24c.005-.88-.262-1.553-.803-2.02-.525-.468-1.292-.705-2.3-.711-1.152-.008-2.361.248-3.629.768l-.777-2.333c1.573-.694 3.183-1.035 4.831-1.025 1.84.012 3.221.485 4.143 1.42.938.933 1.401 2.256 1.39 3.968l-.048 7.512zm-2.779-4.602l.005-.72c-.862-.342-1.829-.516-2.901-.523-.912-.006-1.625.166-2.139.514-.514.35-.773.843-.778 1.483-.003.576.226 1.034.688 1.373.461.339 1.044.51 1.748.515.976.006 1.778-.236 2.405-.728.643-.492.967-1.13.972-1.914zm12.439 2.432c1.072.007 1.946-.355 2.623-1.087.693-.747 1.043-1.673 1.05-2.777.007-1.088-.347-2.01-1.062-2.767-.699-.772-1.569-1.162-2.609-1.169-1.056-.007-1.93.364-2.623 1.111-.677.748-1.019 1.674-1.026 2.778-.007 1.088.339 2.01 1.038 2.766.699.757 1.569 1.139 2.609 1.145zm-.064 2.52c-2.048-.013-3.644-.671-4.788-1.975-1.143-1.303-1.708-3.123-1.692-5.459a34.9 34.9 0 01.06-1.968c.052-.575.136-1.19.252-1.846.117-.671.288-1.254.516-1.749a7.74 7.74 0 01.897-1.41 4.472 4.472 0 011.399-1.143 7.142 7.142 0 011.997-.707l6.921-1.395.465 2.33-6.922 1.468c-1.153.233-1.98.66-2.48 1.28-.5.605-.793 1.37-.879 2.298.388-.637.992-1.185 1.811-1.644.835-.475 1.86-.708 3.076-.7 1.648.01 3.06.62 4.237 1.827 1.192 1.192 1.782 2.652 1.771 4.38-.011 1.776-.653 3.292-1.925 4.548-1.256 1.255-2.828 1.877-4.716 1.865zm15.582.1c-1.919-.012-3.515-.662-4.787-1.95-1.272-1.289-1.902-2.853-1.89-4.693.012-1.84.67-3.395 1.974-4.667 1.305-1.287 2.917-1.925 4.837-1.913 1.92.013 3.516.663 4.787 1.951 1.288 1.289 1.926 2.86 1.914 4.717-.012 1.824-.67 3.38-1.974 4.667-1.304 1.272-2.925 1.901-4.861 1.889zm.065-2.519c1.152.008 2.082-.378 2.791-1.158.709-.78 1.068-1.745 1.075-2.897.007-1.136-.354-2.098-1.085-2.887-.731-.805-1.657-1.21-2.776-1.218-1.136-.007-2.059.379-2.768 1.158-.709.78-1.067 1.745-1.075 2.897-.007 1.12.355 2.083 1.086 2.887.73.805 1.648 1.211 2.752 1.218zm12.399 2.312l.065-10.175-4.08-.027.016-2.496 11.088.072-.016 2.496-4.08-.027-.066 10.176-2.927-.019zm19.943.13l-2.88-.02.01-1.56c-1.032 1.21-2.404 1.81-4.116 1.798-1.264-.008-2.334-.36-3.209-1.053-.86-.71-1.285-1.688-1.277-2.936.008-1.36.487-2.389 1.436-3.087.948-.698 2.19-1.042 3.726-1.032 1.232.008 2.399.192 3.501.55l.001-.24c.006-.88-.262-1.553-.802-2.02-.525-.468-1.292-.705-2.3-.711-1.152-.008-2.362.248-3.629.768l-.777-2.333c1.573-.694 3.183-1.035 4.831-1.025 1.84.012 3.221.485 4.143 1.42.938.933 1.401 2.256 1.39 3.968l-.048 7.512zm-2.779-4.603l.005-.72c-.862-.341-1.829-.516-2.901-.523-.912-.006-1.625.166-2.139.514-.514.35-.774.843-.778 1.483-.003.577.226 1.034.687 1.373.462.339 1.045.51 1.749.515.976.007 1.778-.236 2.405-.728.643-.492.967-1.13.972-1.914z" fill="#252525"/></svg>