<svg width="87" height="28" fill="none" xmlns="http://www.w3.org/2000/svg"><path d="M3 3H0v17h3v-7h21v7h3V3h-3v7H3V3zm38.5 17.08l-2.88-.018.011-1.56c-1.032 1.209-2.404 1.808-4.116 1.797-1.264-.008-2.334-.36-3.209-1.053-.86-.71-1.285-1.688-1.277-2.936.009-1.36.487-2.389 1.436-3.087.948-.698 2.19-1.042 3.727-1.032a11.5 11.5 0 013.5.55l.002-.24c.005-.88-.262-1.553-.803-2.02-.525-.468-1.292-.705-2.3-.711-1.152-.008-2.361.248-3.629.768l-.777-2.333c1.573-.694 3.183-1.035 4.831-1.025 1.84.012 3.221.485 4.143 1.42.938.933 1.401 2.256 1.39 3.968l-.048 7.512zm-2.778-4.602l.005-.72c-.862-.341-1.829-.516-2.9-.523-.913-.006-1.626.166-2.14.514-.514.35-.773.843-.777 1.484a1.601 1.601 0 00.687 1.372c.462.339 1.044.51 1.748.515.976.007 1.778-.236 2.405-.728.643-.492.967-1.13.972-1.914zm10.55 4.94c-2.175-.014-4.019-.674-5.53-1.98l1.38-1.91c1.177 1.015 2.502 1.528 3.974 1.537.672.004 1.24-.152 1.707-.469.466-.333.7-.755.704-1.267.003-.48-.218-.866-.664-1.157-.447-.29-1.078-.439-1.894-.444l-1.56-.01.014-2.088 1.56.01c.672.005 1.209-.144 1.61-.446.419-.317.63-.715.633-1.195.002-.432-.195-.778-.594-1.036-.382-.275-.877-.414-1.485-.418-1.408-.009-2.61.415-3.608 1.273l-1.285-1.832c1.4-1.207 3.124-1.804 5.172-1.791 1.392.009 2.526.336 3.402.982.876.646 1.31 1.464 1.304 2.456-.009 1.344-.679 2.3-2.01 2.867 1.532.554 2.293 1.583 2.284 3.087-.007 1.088-.485 2.005-1.434 2.751-.949.73-2.175 1.09-3.68 1.08zm18.736-.167l-2.88-.018.01-1.56c-1.032 1.21-2.404 1.808-4.116 1.797-1.264-.008-2.333-.359-3.209-1.052-.86-.71-1.285-1.689-1.277-2.937.009-1.36.488-2.389 1.436-3.087.949-.697 2.191-1.042 3.727-1.032 1.232.008 2.399.192 3.5.551l.002-.24c.006-.88-.262-1.554-.803-2.021-.525-.468-1.291-.705-2.3-.711-1.151-.007-2.361.249-3.629.768l-.776-2.333c1.572-.693 3.182-1.035 4.83-1.024 1.84.012 3.221.484 4.143 1.418.938.935 1.402 2.258 1.39 3.97l-.048 7.511zM65.23 15.65l.004-.72c-.861-.341-1.828-.515-2.9-.522-.912-.006-1.625.165-2.14.514-.514.348-.773.843-.777 1.483a1.6 1.6 0 00.687 1.372c.462.34 1.045.511 1.749.515.976.007 1.777-.236 2.404-.728.644-.492.968-1.13.973-1.914zm4.748 7.663l.036-5.544 1.368.01c.956-1.883 1.447-4.752 1.472-8.608l.01-1.56 9.816.064-.066 10.176 1.8.011-.42 5.542-2.424-.016.02-3.048-8.88-.057-.308 3.046-2.424-.016zm4.38-5.516l5.352.035.05-7.68-4.176-.027-.011 1.68c-.015 2.352-.42 4.35-1.215 5.992z" fill="#252525"/></svg>