<svg width="144" height="42" fill="none" xmlns="http://www.w3.org/2000/svg"><path d="M3.315 31.017l.187-25.199 4.428.025-.078 10.476 12.024.067.078-10.476 4.428.025-.188 25.2-4.428-.026.08-10.62-12.024-.067-.08 10.62-4.427-.025zm59.73.335l.187-25.2 11.304.064c2.904.016 5.094.772 6.571 2.269 1.12 1.134 1.673 2.553 1.66 4.257-.018 2.496-1.232 4.361-3.641 5.596 3.327 1.146 4.98 3.22 4.957 6.22-.016 2.208-.869 3.907-2.558 5.097-1.689 1.19-3.961 1.778-6.817 1.762l-11.664-.065zm4.464-14.555l6.048.034c1.464.008 2.618-.274 3.462-.845.868-.595 1.307-1.469 1.316-2.62.007-1.009-.371-1.79-1.135-2.347-.764-.58-1.853-.874-3.27-.883l-6.371-.035-.05 6.696zm-.08 10.655l7.344.041c1.536.01 2.726-.284 3.57-.88.87-.595 1.308-1.468 1.316-2.62.017-2.256-1.702-3.394-5.158-3.413l-7.02-.04-.052 6.912zm43.112.782c-2.515 2.53-5.68 3.784-9.496 3.763-3.816-.022-6.95-1.3-9.404-3.833-2.453-2.534-3.666-5.625-3.639-9.273.027-3.6 1.298-6.664 3.813-9.194 2.515-2.53 5.68-3.785 9.496-3.763 3.816.021 6.95 1.299 9.404 3.833 2.453 2.533 3.666 5.624 3.639 9.272-.027 3.6-1.298 6.665-3.813 9.195zm-15.53-2.931c1.618 1.737 3.664 2.612 6.136 2.626 2.472.014 4.506-.838 6.103-2.558 1.621-1.719 2.441-3.838 2.46-6.358.018-2.496-.782-4.612-2.401-6.35-1.595-1.76-3.628-2.648-6.1-2.662-2.472-.014-4.519.839-6.14 2.558-1.596 1.72-2.404 3.839-2.423 6.359-.019 2.495.77 4.624 2.364 6.385zm24.599 6.366l.187-25.2 18.684.105-.029 3.96-14.256-.08-.049 6.552 12.636.07-.03 3.96-12.636-.07-.05 6.768 14.436.08-.03 3.96-18.863-.105z" fill="#000"/><path stroke="#4B39BE" stroke-width="4" d="M33.104 8h21v22h-21z"/></svg>