<svg width="437" height="44" fill="none" xmlns="http://www.w3.org/2000/svg"><path d="M18.11 31.1l.075-9.972c-2.723 1.401-5.116 2.096-7.18 2.084-2.544-.014-4.567-.697-6.069-2.05-1.478-1.376-2.207-3.384-2.187-6.024l.07-9.324 4.427.025-.06 8.208c-.013 1.608.374 2.858 1.16 3.75.785.869 1.945 1.307 3.482 1.316 2.28.013 4.408-.636 6.386-1.944L18.298 5.9l4.428.025-.188 25.199-4.428-.025zm17.095.096l.157-21.096-7.991-.044.03-4.104 20.448.114-.03 4.104-7.993-.044-.157 21.095-4.464-.025zm60.323.338l.188-25.2 4.716.027 7.579 11.959 7.756-11.873 4.716.026-.187 25.2-4.428-.025.134-18.072-8.044 11.835h-.144l-7.796-11.852-.134 18-4.356-.025zm31.253.175l.188-25.2 4.392.025-.068 9.072 5.796.032c2.88.017 5.167.725 6.861 2.127 1.717 1.377 2.567 3.314 2.548 5.81-.018 2.544-.886 4.555-2.601 6.034-1.714 1.454-4.036 2.173-6.964 2.157l-10.152-.057zm4.422-3.935l5.688.031c1.656.01 2.93-.343 3.824-1.058.917-.739 1.381-1.816 1.392-3.232.009-1.296-.439-2.283-1.346-2.96-.907-.701-2.2-1.056-3.88-1.066l-5.616-.031-.062 8.316zm18.222 4.062l.188-25.2 4.392.025-.188 25.2-4.392-.025zm30.411-25.462c2.592.014 4.712.662 6.358 1.943 1.647 1.282 2.463 2.906 2.448 4.874-.02 2.712-1.463 4.66-4.328 5.844 1.509.464 2.703 1.203 3.584 2.216.88 1.013 1.315 2.3 1.303 3.86-.016 2.135-.881 3.895-2.595 5.277-1.715 1.382-3.952 2.066-6.712 2.05-2.376-.013-4.425-.36-6.148-1.042-1.699-.706-3.275-1.758-4.729-3.159l2.435-3.046c2.335 2.245 5.123 3.377 8.363 3.395 1.392.008 2.558-.322 3.499-.988.965-.691 1.452-1.612 1.461-2.764.009-1.248-.512-2.175-1.563-2.781-1.052-.606-2.442-.914-4.17-.924l-2.844-.016.028-3.671 2.808.015c1.632.01 2.906-.295 3.823-.914.917-.643 1.379-1.552 1.388-2.728.008-1.056-.43-1.91-1.313-2.564-.859-.653-1.997-.983-3.413-.991-2.759-.015-5.118.907-7.076 2.768l-2.355-2.893c2.683-2.529 5.933-3.783 9.748-3.761zm12.355 25.701l11.277-25.317 4.104.023 10.898 25.441-4.68-.026-2.51-6.098-11.916-.067-2.637 6.07-4.536-.026zm8.822-9.959l8.676.05-4.281-10.105-4.395 10.055zm33.475 10.628c-3.648-.02-6.686-1.285-9.116-3.795-2.429-2.534-3.63-5.636-3.603-9.308.028-3.648 1.275-6.725 3.741-9.231 2.467-2.507 5.584-3.75 9.352-3.728 2.184.012 4.03.359 5.537 1.039 1.531.68 2.964 1.66 4.298 2.94l-2.868 3.26c-2.241-2.1-4.585-3.158-7.033-3.171-2.4-.014-4.398.839-5.995 2.558-1.573 1.72-2.369 3.839-2.388 6.359-.018 2.496.758 4.624 2.329 6.385 1.571 1.737 3.544 2.612 5.92 2.625 1.44.008 2.714-.249 3.822-.77 1.108-.546 2.255-1.368 3.439-2.465l2.822 2.896c-1.427 1.48-2.935 2.587-4.525 3.322-1.589.735-3.5 1.097-5.732 1.084zm14.879-.06a12.015 12.015 0 01-3.057-.414l.459-3.633c.431.146.911.221 1.439.224.576.003 1.068-.078 1.477-.244.434-.19.881-.619 1.342-1.288.485-.67.864-1.58 1.136-2.73.297-1.174.549-2.805.757-4.892.207-2.087.322-4.594.344-7.522l.037-4.968 17.28.097-.188 25.2-4.428-.026.158-21.203-8.712-.049-.017 2.268c-.029 3.912-.221 7.163-.576 9.753-.356 2.566-.898 4.531-1.628 5.895-.73 1.34-1.553 2.271-2.469 2.794-.892.5-2.01.745-3.354.738zm31.882.286a10.238 10.238 0 01-4.922-1.287l1.716-3.303c.932.533 1.962.803 3.09.81 1.512.008 2.839-.897 3.981-2.714l-10.37-19.139 4.968.028 7.739 14.696 7.021-14.613 4.788.027-9.975 19.636c-1.973 3.925-4.652 5.878-8.036 5.86zm40.518-.169l-4.392-.025.05-6.695-3.927-4.522-7.607 11.153-5.328-.03 10.044-14.416-9.352-10.78 5.292.03 10.918 13.165.098-13.104 4.391.025-.097 13.103L332.97 7.663l5.292.03-9.548 10.675 9.864 14.527-5.328-.03-7.44-11.237-3.993 4.477-.05 6.696zm20.589.115l.188-25.199 4.356.025-.137 18.395 12.881-18.324 4.14.023-.188 25.2-4.356-.025.137-18.36-12.845 18.289-4.176-.024zm27.771.444a12.024 12.024 0 01-3.057-.413l.459-3.634c.431.147.91.222 1.438.224.576.004 1.069-.078 1.478-.243.434-.19.881-.62 1.342-1.289.485-.67.864-1.579 1.136-2.73.297-1.174.549-2.804.757-4.891.207-2.087.322-4.595.344-7.523l.037-4.967 17.28.096-.188 25.2-4.428-.025.158-21.203-8.712-.05-.017 2.269c-.029 3.912-.221 7.162-.577 9.753-.355 2.566-.897 4.53-1.628 5.894-.73 1.34-1.553 2.272-2.469 2.795-.891.499-2.009.745-3.353.737zm27.529-.134l.188-25.2 4.356.025-.137 18.396 12.881-18.324 4.139.023-.187 25.2-4.356-.025.137-18.36-12.845 18.289-4.176-.024z" fill="#000"/><path stroke="#4B39BE" stroke-width="4" d="M54 8h21v22H54z"/></svg>