<svg width="143" height="44" fill="none" xmlns="http://www.w3.org/2000/svg"><path d="M28.154 33.005L39.431 7.688l4.105.023 10.898 25.441-4.68-.026-2.51-6.098-11.916-.067-2.638 6.07-4.535-.026zm8.823-9.959l8.676.05-4.281-10.105-4.395 10.056zm36.535-18.3c-1.015.883-2.278 1.32-3.79 1.312-1.512-.009-2.769-.46-3.77-1.353-1.001-.918-1.628-2.158-1.88-3.72l2.703-.488c.444 1.635 1.434 2.456 2.97 2.465 1.488.008 2.49-.802 3.006-2.431l2.66.518c-.251 1.56-.885 2.792-1.9 3.698zm-14.757 28.43l.188-25.199 4.356.025-.137 18.395L76.043 8.073l4.14.023-.188 25.2-4.356-.025.137-18.36L62.931 33.2l-4.176-.023zm33.965.19l.158-21.095-7.992-.044.03-4.104 20.448.114-.031 4.104-7.992-.045-.157 21.096-4.464-.025zm17.152.097l.188-25.2 4.392.025-.068 9.072 5.796.032c2.88.017 5.167.725 6.86 2.127 1.718 1.378 2.568 3.314 2.549 5.81-.019 2.544-.886 4.555-2.601 6.034-1.715 1.454-4.036 2.173-6.964 2.157l-10.152-.057zm4.421-3.935l5.688.032c1.656.009 2.931-.344 3.824-1.06.918-.738 1.382-1.815 1.392-3.231.01-1.296-.439-2.283-1.346-2.96-.906-.701-2.2-1.056-3.88-1.066l-5.616-.031-.062 8.316zm18.222 4.062l.188-25.2 4.392.025-.188 25.2-4.392-.025z" fill="#000"/><path d="M24 8.982H3v22h21" stroke="#4B39BE" stroke-width="4.3"/></svg>