<svg width="181" height="43" fill="none" xmlns="http://www.w3.org/2000/svg"><path d="M3.315 31.017l.187-25.199 4.428.025-.094 12.671L19.918 5.91l5.436.03-10.557 10.777 10.837 14.425-5.364-.03-8.52-11.388-3.953 4.01-.055 7.308-4.427-.025zm47.167.265l.141-19.008 4.356.024-.057 7.704 8.388.047.057-7.704 4.356.025-.142 19.007-4.356-.024.058-7.668-8.388-.047-.057 7.668-4.356-.024zm26.638.149l.113-15.264-6.12-.034.028-3.744 16.632.093-.028 3.744-6.12-.034-.114 15.263-4.391-.024zm29.914.167l-4.32-.024.018-2.34c-1.55 1.815-3.609 2.716-6.177 2.702-1.896-.011-3.5-.536-4.812-1.575-1.288-1.064-1.925-2.531-1.911-4.403.015-2.04.735-3.584 2.158-4.632 1.424-1.048 3.288-1.566 5.592-1.553 1.848.01 3.598.284 5.25.822l.003-.36c.01-1.32-.391-2.33-1.202-3.031-.786-.7-1.936-1.055-3.448-1.064-1.728-.01-3.543.377-5.445 1.158l-1.161-3.499c2.36-1.042 4.775-1.557 7.247-1.543 2.76.015 4.831.723 6.213 2.123 1.405 1.4 2.098 3.384 2.079 5.952l-.084 11.267zm-4.16-6.9l.008-1.08c-1.293-.51-2.743-.77-4.35-.78-1.369-.007-2.439.25-3.21.774-.773.524-1.162 1.266-1.17 2.226-.006.864.337 1.55 1.03 2.058.692.508 1.566.765 2.622.77 1.464.009 2.667-.357 3.608-1.095.966-.739 1.453-1.696 1.462-2.872zm9.341 6.93l.142-19.008 4.32.024-.068 9.108 8.348-9.062 5.111.029-7.439 7.95 7.91 11.06-5.148-.028-5.702-7.88-3.12 3.259-.034 4.572-4.32-.025zm25.408.142l.113-15.264-6.12-.034.028-3.744 16.632.093-.028 3.744-6.12-.034-.114 15.263-4.391-.024zm13.966.078l.142-19.008 4.356.025-.05 6.66 3.996.022c2.256.013 4.077.527 5.461 1.543 1.384 1.015 2.069 2.52 2.054 4.511-.014 1.968-.674 3.512-1.978 4.633-1.305 1.12-3.073 1.675-5.305 1.662l-8.676-.048zm4.383-3.504l3.744.021c1.104.007 1.957-.229 2.561-.705.604-.477.909-1.171.915-2.083.007-.84-.3-1.49-.921-1.95-.597-.459-1.459-.692-2.587-.698l-3.672-.02-.04 5.435zm14.409 3.61l.142-19.008 4.356.024-.142 19.008-4.356-.025z" fill="#000"/><path stroke="#4B39BE" stroke-width="4" d="M30 14h15v15H30z"/></svg>