<svg width="184" height="44" fill="none" xmlns="http://www.w3.org/2000/svg"><path d="M.394 38.401l.07-9.36 2.448.014c2.167-4.212 3.28-10.098 3.336-17.658l.026-3.563 17.568.098-.158 21.24 3.132.017-.682 9.356-3.672-.02.04-5.4-17.748-.1-.472 5.398L.394 38.4zm7.234-9.32l11.628.066.128-17.244-8.892-.05-.021 2.88c-.044 5.88-.992 10.663-2.843 14.348zm23.108 4.09l.188-25.2 4.356.025-.137 18.396 12.88-18.325 4.14.024-.187 25.199-4.356-.024.137-18.36-12.845 18.288-4.176-.023zM67.268 7.743c2.592.015 4.711.663 6.358 1.944 1.646 1.281 2.462 2.906 2.447 4.874-.02 2.712-1.462 4.66-4.327 5.843 1.508.465 2.703 1.204 3.583 2.216.88 1.014 1.315 2.3 1.303 3.86-.016 2.136-.88 3.895-2.595 5.277-1.714 1.383-3.952 2.066-6.712 2.05-2.375-.013-4.425-.36-6.148-1.042-1.699-.705-3.275-1.758-4.728-3.158l2.434-3.046c2.336 2.245 5.123 3.376 8.363 3.394 1.392.008 2.559-.321 3.5-.988.965-.69 1.452-1.612 1.46-2.764.01-1.248-.511-2.175-1.563-2.78-1.052-.607-2.441-.914-4.17-.924l-2.843-.016.027-3.672 2.808.016c1.632.009 2.906-.296 3.823-.915.917-.643 1.38-1.552 1.389-2.728.007-1.056-.43-1.91-1.313-2.563-.86-.653-1.997-.984-3.413-.992-2.76-.015-5.119.908-7.077 2.769l-2.354-2.893c2.682-2.53 5.932-3.783 9.748-3.762zm12.354 25.702L90.899 8.128l4.104.023 10.899 25.44-4.68-.025-2.51-6.098-11.917-.067-2.637 6.07-4.536-.026zm8.823-9.959l8.675.049-4.28-10.104-4.395 10.055zm36.534-18.3c-1.014.883-2.278 1.32-3.79 1.311-1.512-.008-2.768-.46-3.77-1.353-1.001-.918-1.628-2.157-1.88-3.719l2.704-.488c.444 1.634 1.433 2.456 2.969 2.464 1.488.009 2.491-.802 3.007-2.43l2.66.518c-.252 1.559-.885 2.791-1.9 3.697zm-14.756 28.43l.188-25.2 4.356.025-.137 18.396 12.881-18.324 4.139.023-.187 25.2-4.356-.025.137-18.36-12.845 18.288-4.176-.023z" fill="#000"/><path d="M181 34V21h-40v13m0-26v13h40V8" stroke="#4B39BE" stroke-width="4.3"/></svg>