<svg width="170" height="22" viewBox="0 0 170 22" fill="none" xmlns="http://www.w3.org/2000/svg">
<path d="M23.657 16.0087L23.7502 3.40905L29.4021 3.44094C30.8541 3.44914 31.9493 3.82732 32.6878 4.5755C33.2476 5.14267 33.5244 5.85224 33.5181 6.70422C33.5088 7.95218 32.9019 8.88477 31.6973 9.50198C33.3611 10.0754 34.1875 11.1121 34.1764 12.612C34.1682 13.716 33.7419 14.5656 32.8975 15.1608C32.0531 15.7561 30.9169 16.0497 29.4889 16.0416L23.657 16.0087ZM25.8889 8.73119L28.9128 8.74826C29.6448 8.75239 30.2219 8.61164 30.644 8.32602C31.0782 8.02847 31.2975 7.5917 31.3017 7.01571C31.3054 6.51173 31.1163 6.12065 30.7344 5.8425C30.3525 5.55234 29.8076 5.40526 29.0996 5.40126L25.9137 5.38328L25.8889 8.73119ZM25.8495 14.059L29.5214 14.0798C30.2894 14.0841 30.8845 13.9375 31.3067 13.6398C31.7409 13.3423 31.9602 12.9055 31.9644 12.3295C31.9728 11.2016 31.113 10.6327 29.385 10.6229L25.875 10.6031L25.8495 14.059ZM42.0434 16.1125L42.1366 3.51281L47.1046 3.54084C48.5685 3.5491 49.7297 3.93966 50.588 4.71252C51.4463 5.48537 51.8706 6.51978 51.8611 7.81574C51.851 9.17171 51.3632 10.225 50.3976 10.9755C49.4441 11.7262 48.2413 12.0974 46.7893 12.0892L44.2873 12.0751L44.2574 16.125L42.0434 16.1125ZM44.3021 10.0771L46.8761 10.0916C47.7041 10.0963 48.3656 9.89005 48.8607 9.47284C49.3558 9.05563 49.6059 8.50503 49.611 7.82105C49.6163 7.10107 49.3744 6.54769 48.8852 6.16093C48.4082 5.76223 47.7496 5.56051 46.9096 5.55577L44.3357 5.54125L44.3021 10.0771ZM52.9867 16.1742L58.6245 3.51585L60.6764 3.52743L66.1265 16.2484L63.7865 16.2352L62.531 13.186L56.5731 13.1524L55.2546 16.187L52.9867 16.1742ZM57.3976 11.195L61.7356 11.2195L59.5949 6.16736L57.3976 11.195ZM72.6659 3.46909C73.9619 3.4764 75.0215 3.80039 75.8448 4.44104C76.6681 5.0817 77.0761 5.89401 77.0688 6.87798C77.0587 8.23395 76.3375 9.20789 74.9051 9.79981C75.6594 10.0321 76.2567 10.4015 76.697 10.9079C77.1372 11.4144 77.3545 12.0577 77.3487 12.8376C77.3408 13.9056 76.9083 14.7852 76.0511 15.4764C75.194 16.1675 74.0754 16.5092 72.6955 16.5014C71.5075 16.4947 70.4827 16.321 69.6212 15.9801C68.7718 15.6273 67.9837 15.1008 67.2569 14.4007L68.4742 12.8776C69.6419 14.0002 71.0357 14.566 72.6557 14.5752C73.3517 14.5791 73.9349 14.4144 74.4054 14.0811C74.888 13.7358 75.1314 13.2751 75.1357 12.6992C75.1403 12.0752 74.8797 11.6117 74.3539 11.3087C73.8282 11.0058 73.1333 10.8518 72.2693 10.847L70.8473 10.8389L70.8609 9.00298L72.2649 9.0109C73.0809 9.01551 73.718 8.8631 74.1763 8.55368C74.6347 8.23227 74.8661 7.77757 74.8704 7.18958C74.8743 6.6616 74.6555 6.23435 74.2139 5.90786C73.7843 5.58143 73.2155 5.41622 72.5075 5.41222C71.1275 5.40443 69.9481 5.86578 68.9692 6.79627L67.7919 5.34961C69.1332 4.08516 70.7579 3.45832 72.6659 3.46909ZM79.9237 16.3262L80.0169 3.72657L84.9848 3.75461C86.4488 3.76287 87.6099 4.15343 88.4682 4.92628C89.3265 5.69914 89.7509 6.73355 89.7413 8.02951C89.7313 9.38547 89.2435 10.4387 88.2779 11.1893C87.3243 11.9399 86.1215 12.3111 84.6696 12.303L82.1676 12.2888L82.1376 16.3387L79.9237 16.3262ZM82.1824 10.2909L84.7563 10.3054C85.5843 10.3101 86.2459 10.1038 86.741 9.6866C87.2361 9.26939 87.4861 8.7188 87.4912 8.03481C87.4965 7.31483 87.2546 6.76146 86.7655 6.3747C86.2884 5.976 85.6299 5.77428 84.7899 5.76954L82.2159 5.75501L82.1824 10.2909ZM90.8669 16.388L96.5047 3.72962L98.5567 3.7412L104.007 16.4621L101.667 16.4489L100.411 13.3998L94.4534 13.3662L93.1349 16.4008L90.8669 16.388ZM95.2779 11.4088L99.6158 11.4333L97.4751 6.38113L95.2779 11.4088ZM106.167 16.4743L106.261 3.87467L115.656 3.9277L115.642 5.92564L108.442 5.88501L108.42 8.78293L111.93 8.80274C113.334 8.81066 114.442 9.15292 115.253 9.8295C116.076 10.5062 116.483 11.4445 116.474 12.6444C116.465 13.8924 116.044 14.85 115.211 15.5173C114.378 16.1847 113.229 16.5142 111.765 16.5059L106.167 16.4743ZM108.378 14.5068L111.294 14.5232C112.302 14.5289 113.047 14.3891 113.529 14.1038C114.011 13.8066 114.255 13.2859 114.261 12.5419C114.27 11.306 113.422 10.6832 111.718 10.6736L108.407 10.6549L108.378 14.5068ZM129.705 14.9151C128.447 16.1801 126.865 16.8071 124.957 16.7964C123.049 16.7856 121.482 16.1467 120.255 14.8798C119.028 13.6129 118.422 12.0674 118.435 10.2435C118.448 8.44352 119.084 6.91108 120.341 5.64616C121.599 4.38124 123.181 3.75416 125.089 3.76493C126.997 3.77569 128.564 4.41455 129.791 5.68149C131.018 6.94843 131.624 8.49387 131.611 10.3178C131.598 12.1178 130.962 13.6502 129.705 14.9151ZM121.939 13.4493C122.749 14.3179 123.772 14.7556 125.008 14.7626C126.244 14.7696 127.261 14.3433 128.059 13.4838C128.87 12.6244 129.28 11.5647 129.289 10.3047C129.298 9.05675 128.898 7.99848 128.088 7.1299C127.291 6.24938 126.274 5.80564 125.038 5.79867C123.802 5.79169 122.779 6.21792 121.969 7.07736C121.17 7.93687 120.766 8.99661 120.757 10.2566C120.748 11.5045 121.142 12.5688 121.939 13.4493ZM137.335 16.6502L137.413 6.1025L133.417 6.07995L133.432 4.02801L143.656 4.08571L143.641 6.13765L139.645 6.1151L139.567 16.6628L137.335 16.6502ZM145.911 16.6986L146.004 4.09896L148.218 4.11145L148.171 10.4473L154.212 4.14527L156.93 4.16061L151.652 9.54891L157.071 16.7616L154.389 16.7465L150.129 11.0523L148.152 13.0572L148.125 16.7111L145.911 16.6986ZM158.954 16.7722L159.047 4.17256L168.389 4.22528L168.374 6.20522L161.246 6.165L161.222 9.44091L167.54 9.47656L167.525 11.4565L161.207 11.4209L161.182 14.8048L168.4 14.8455L168.386 16.8254L158.954 16.7722Z" fill="url(#paint0_linear_583_3)"/>
<path d="M12.2729 6.65804C12.0287 6.33402 11.7506 6.04015 11.4441 5.78429L11.6831 4.88825C11.761 4.59544 11.6194 4.28815 11.3568 4.16946L10.1297 3.62319C9.86504 3.50539 9.56254 3.61683 9.42355 3.88245L9.00091 4.68948C8.59871 4.63165 8.19309 4.62662 7.79103 4.67382L7.35895 3.85C7.21875 3.58313 6.91494 3.4696 6.65213 3.58421L5.42634 4.11876C5.16353 4.23337 5.02385 4.54033 5.10245 4.83404L5.33777 5.70778C4.99365 5.98342 4.68646 6.30445 4.42067 6.66381L3.60999 6.41512C3.33423 6.33036 3.04626 6.47901 2.93634 6.75758L2.43058 8.05956C2.32152 8.34032 2.42818 8.66282 2.67877 8.81237L3.40351 9.24717C3.3483 9.69667 3.34559 10.1514 3.40106 10.6013L2.70515 11.0098C2.45514 11.1573 2.35036 11.4798 2.45977 11.7601L2.97006 13.0674C3.07947 13.3477 3.3689 13.4983 3.64453 13.4165L4.40026 13.192C4.65526 13.5498 4.95266 13.8686 5.28171 14.1453L5.07156 14.9366C4.99364 15.2294 5.1352 15.5367 5.39778 15.6554L6.62204 16.2003C6.88667 16.3181 7.18917 16.2067 7.32817 15.9411L7.69278 15.2439C8.13226 15.3111 8.57589 15.315 9.0166 15.256L9.39191 15.9713C9.53212 16.2382 9.83592 16.3517 10.0987 16.2371L11.3245 15.7026C11.5873 15.588 11.727 15.281 11.6484 14.9873L11.4374 14.2004C11.7986 13.907 12.1183 13.5626 12.3899 13.1751L13.1409 13.4062C13.4166 13.491 13.7046 13.3423 13.8145 13.0638L14.3203 11.7618C14.4293 11.481 14.3227 11.1585 14.0721 11.009L13.3511 10.5777C13.3981 10.1318 13.3906 9.68148 13.3277 9.23736L14.0474 8.81588C14.2974 8.66842 14.4022 8.34596 14.2928 8.06565L13.7825 6.7583C13.6731 6.47799 13.3837 6.32744 13.108 6.40921L12.2729 6.65804ZM9.21222 12.1314C8.09526 12.6185 6.80702 12.0451 6.34203 10.8538C5.87704 9.66248 6.40797 8.2957 7.52492 7.80861C8.64186 7.32153 9.93013 7.89497 10.3951 9.08627C10.8601 10.2776 10.3292 11.6443 9.21222 12.1314Z" fill="#6B86E8"/>
<defs>
<linearGradient id="paint0_linear_583_3" x1="165.591" y1="6.063" x2="56.7483" y2="66.0484" gradientUnits="userSpaceOnUse">
<stop stop-color="#926AE8"/>
<stop offset="1" stop-color="#6A86E8"/>
</linearGradient>
</defs>
</svg>
