<svg width="75" height="20" fill="none" xmlns="http://www.w3.org/2000/svg"><g clip-path="url(#clip0)" fill="#4B39BE"><path d="M22.028 18.01l.122-15.4 2.706.014-.05 6.402 7.347.039.05-6.402 2.707.014-.122 15.4-2.706-.014.051-6.49-7.348-.039-.051 6.49-2.706-.014zm16.714.088l.123-15.4 2.684.014-.044 5.544 3.541.019c1.76.009 3.158.442 4.192 1.298 1.05.841 1.568 2.024 1.556 3.55-.012 1.554-.543 2.784-1.591 3.688-1.049.889-2.468 1.329-4.257 1.32l-6.204-.033zm2.704-2.406l3.475.018c1.012.005 1.791-.21 2.338-.648.56-.451.844-1.11.851-1.975.007-.792-.267-1.395-.821-1.809-.554-.428-1.345-.645-2.371-.65l-3.432-.018-.04 5.082zm24.701 2.814c-1.965-.01-3.61-.657-4.934-1.94-1.325-1.283-2.104-2.915-2.337-4.897l-2.53-.013-.052 6.534-2.706-.015.122-15.399 2.706.014-.051 6.446 2.552.013c.28-1.934 1.091-3.529 2.436-4.783 1.36-1.269 3.015-1.898 4.965-1.888 2.156.012 3.917.784 5.284 2.316 1.381 1.533 2.063 3.428 2.045 5.687-.018 2.244-.73 4.132-2.135 5.665-1.406 1.518-3.194 2.27-5.365 2.26zm-3.268-4.044c.872 1.06 1.983 1.595 3.332 1.602 1.35.007 2.46-.508 3.334-1.545.874-1.051 1.317-2.369 1.33-3.953.012-1.554-.418-2.862-1.29-3.923-.87-1.06-1.981-1.594-3.33-1.601-1.35-.007-2.461.508-3.335 1.544-.859 1.037-1.294 2.348-1.307 3.932-.013 1.554.41 2.87 1.267 3.944zM9.5 0l2.357 7.255h7.63l-6.173 4.484 2.358 7.256L9.5 14.51l-6.172 4.484 2.358-7.256-6.172-4.484h7.629L9.5 0z"/></g><defs><clipPath id="clip0"><path fill="#fff" d="M0 0h75v20H0z"/></clipPath></defs></svg>