<svg width="201" height="21" fill="none" xmlns="http://www.w3.org/2000/svg"><g clip-path="url(#clip0)" fill="#4B39BE"><path d="M14.344 5.747a6.948 6.948 0 00-1.136-1.114l.328-1.143a.768.768 0 00-.447-.916l-1.681-.697a.77.77 0 00-.968.331l-.579 1.029a6.865 6.865 0 00-1.657-.02l-.592-1.05a.778.778 0 00-.968-.34l-1.68.682a.756.756 0 00-.443.912l.322 1.114c-.471.352-.892.76-1.256 1.219l-1.11-.317a.77.77 0 00-.924.437L.86 7.534a.762.762 0 00.34.96l.993.554a6.581 6.581 0 00-.003 1.726l-.953.52a.756.756 0 00-.337.957l.7 1.667c.15.357.546.55.923.445l1.036-.286c.35.456.756.863 1.207 1.215l-.288 1.01a.768.768 0 00.447.916l1.677.694a.77.77 0 00.968-.33l.5-.889c.601.086 1.209.09 1.813.015l.514.912c.192.34.608.485.968.34l1.68-.682a.756.756 0 00.443-.912l-.289-1.003a6.656 6.656 0 001.305-1.308l1.029.295a.77.77 0 00.923-.436l.692-1.66a.762.762 0 00-.34-.96l-.987-.55a6.497 6.497 0 00-.032-1.709l.986-.537a.756.756 0 00.336-.957l-.7-1.667a.778.778 0 00-.923-.445l-1.144.318zm-4.193 6.978a3.039 3.039 0 01-3.932-1.63 2.955 2.955 0 011.62-3.881 3.039 3.039 0 013.932 1.628 2.955 2.955 0 01-1.62 3.883zm11.877 5.285l.122-15.4 6.908.037c1.775.009 3.113.47 4.015 1.385.684.693 1.022 1.56 1.013 2.601-.012 1.525-.754 2.665-2.227 3.42 2.033.7 3.043 1.967 3.028 3.8-.01 1.35-.532 2.388-1.565 3.116-1.032.728-2.421 1.087-4.167 1.078l-7.127-.037zm2.732-8.896l3.696.02c.895.004 1.6-.168 2.117-.517.53-.364.799-.898.804-1.602.005-.616-.226-1.094-.692-1.434-.467-.354-1.133-.534-1.998-.538l-3.894-.02-.033 4.091zm-.051 6.512l4.488.023c.938.005 1.666-.174 2.182-.538.53-.364.8-.898.805-1.602.01-1.379-1.04-2.073-3.152-2.085l-4.29-.022-.033 4.224zM44.5 18.128l.122-15.4 6.072.032c1.79.01 3.209.486 4.257 1.43 1.049.946 1.567 2.21 1.554 3.794-.013 1.657-.61 2.945-1.79 3.862-1.167.918-2.637 1.373-4.412 1.363l-3.058-.016-.04 4.95-2.705-.014zm2.765-7.378l3.146.017c1.012.005 1.82-.247 2.426-.758.605-.51.911-1.183.918-2.019.007-.88-.288-1.556-.886-2.028-.583-.487-1.388-.734-2.414-.739l-3.146-.017-.044 5.544zm10.61 7.448l6.9-15.474 2.507.013 6.653 15.545-2.86-.015-1.532-3.726-7.282-.038-1.614 3.71-2.772-.015zm5.395-6.088l5.302.028-2.613-6.174-2.69 6.146zm18.666-9.45c1.584.009 2.88.404 3.885 1.187 1.006.782 1.504 1.775 1.494 2.978-.013 1.657-.895 2.848-2.646 3.572.922.283 1.651.734 2.189 1.353s.803 1.405.795 2.358c-.01 1.306-.54 2.38-1.587 3.226-1.049.845-2.416 1.263-4.103 1.255-1.451-.008-2.704-.22-3.756-.636-1.038-.43-2.001-1.074-2.89-1.93l1.49-1.861c1.426 1.371 3.13 2.062 5.11 2.072.85.005 1.563-.197 2.138-.605.59-.422.888-.985.894-1.689.006-.762-.313-1.329-.955-1.699-.642-.37-1.492-.558-2.547-.563l-1.739-.01.018-2.243 1.716.009c.998.005 1.777-.182 2.337-.56.56-.393.843-.949.85-1.668.004-.645-.263-1.167-.803-1.566-.524-.399-1.22-.6-2.085-.605-1.686-.009-3.128.556-4.325 1.694L75.978 4.96c1.64-1.546 3.626-2.313 5.958-2.3zm8.862 15.711l.123-15.4 6.072.032c1.789.01 3.208.487 4.256 1.43 1.049.945 1.567 2.209 1.554 3.793-.013 1.657-.61 2.945-1.791 3.863-1.166.917-2.636 1.372-4.41 1.362l-3.059-.016-.039 4.95-2.706-.014zm2.765-7.378l3.146.017c1.012.005 1.82-.247 2.426-.757.605-.51.911-1.184.918-2.02.007-.88-.288-1.556-.886-2.028-.583-.487-1.387-.733-2.414-.739l-3.146-.016-.044 5.543zm10.61 7.448l6.9-15.474 2.507.013 6.653 15.546-2.86-.015-1.532-3.726-7.282-.039-1.614 3.71-2.772-.015zm5.395-6.087l5.302.027-2.613-6.173-2.689 6.146zm13.306 6.185l.122-15.4 11.484.061-.019 2.442-8.8-.046-.028 3.542 4.29.022c1.716.01 3.069.427 4.06 1.254 1.005.826 1.502 1.973 1.491 3.44-.013 1.525-.528 2.695-1.546 3.512-1.019.816-2.423 1.219-4.212 1.21l-6.842-.037zm2.703-2.405l3.564.018c1.232.007 2.143-.164 2.732-.513.59-.364.888-1 .895-1.91.012-1.51-1.023-2.271-3.106-2.282l-4.047-.021-.038 4.708zm26.066.488c-1.538 1.547-3.472 2.314-5.804 2.302-2.332-.012-4.248-.792-5.746-2.34-1.498-1.548-2.239-3.437-2.221-5.666.018-2.2.795-4.073 2.333-5.62 1.537-1.546 3.472-2.313 5.804-2.301 2.332.012 4.247.792 5.746 2.34 1.498 1.548 2.239 3.436 2.221 5.666-.018 2.2-.795 4.073-2.333 5.62zm-9.49-1.787c.989 1.06 2.239 1.595 3.749 1.603 1.511.008 2.755-.513 3.731-1.564.991-1.05 1.493-2.346 1.505-3.886.012-1.525-.476-2.819-1.465-3.88-.974-1.076-2.217-1.618-3.728-1.626-1.51-.007-2.761.514-3.752 1.565-.976 1.05-1.471 2.346-1.483 3.886-.012 1.525.469 2.826 1.443 3.902zm18.815 3.904l.102-12.891-4.884-.026.02-2.508 12.496.066-.02 2.508-4.884-.026-.102 12.892-2.728-.015zm10.481.056l.123-15.4 2.706.014-.062 7.744 7.388-7.705 3.322.017-6.455 6.588 6.618 8.813-3.278-.017-5.203-6.957-2.417 2.45-.036 4.467-2.706-.014zm15.942.083l.122-15.4 11.418.06-.019 2.42-8.712-.045-.032 4.004 7.722.04-.019 2.42-7.722-.04-.033 4.136 8.822.046-.02 2.42-11.527-.06z"/></g><defs><clipPath id="clip0"><path fill="#fff" d="M0 0h201v21H0z"/></clipPath></defs></svg>