<svg width="63" height="21" viewBox="0 0 63 21" fill="none" xmlns="http://www.w3.org/2000/svg">
<path d="M18.657 16.0087L18.7503 3.40904L20.8023 3.42062L27.4877 12.1704L27.5522 3.45869L29.7301 3.47097L29.6369 16.0706L27.7829 16.0602L20.9014 7.05723L20.835 16.021L18.657 16.0087ZM32.8775 16.0889L32.9708 3.48925L42.3126 3.54194L42.298 5.52188L35.1701 5.48168L35.1459 8.75759L41.4637 8.79323L41.4491 10.7732L35.1312 10.7375L35.1061 14.1214L42.324 14.1622L42.3094 16.1421L32.8775 16.0889ZM48.3552 16.2662L44.0572 3.55178L46.4512 3.56528L49.388 12.924L52.5533 3.5637L54.4253 3.57426L57.4518 12.9695L60.527 3.64467L62.8489 3.65777L58.363 16.3226L56.4551 16.3119L53.4261 7.24067L50.2632 16.277L48.3552 16.2662Z" fill="url(#paint0_linear_583_2)"/>
<path d="M7 3L8.5716 8.18237H13.6574L9.5429 11.3853L11.1145 16.5676L7 13.3647L2.8855 16.5676L4.4571 11.3853L0.342604 8.18237H5.4284L7 3Z" fill="#6B86E8"/>
<defs>
<linearGradient id="paint0_linear_583_2" x1="62.4981" y1="5.5093" x2="18.7753" y2="12.9265" gradientUnits="userSpaceOnUse">
<stop stop-color="#926AE8"/>
<stop offset="1" stop-color="#6A86E8"/>
</linearGradient>
</defs>
</svg>
