<svg width="37" height="37" fill="none" xmlns="http://www.w3.org/2000/svg"><path d="M26.882 11.158a11.377 11.377 0 00-1.862-1.845l.544-1.9a1.27 1.27 0 00-.73-1.52l-2.761-1.149a1.265 1.265 0 00-1.593.555l-.958 1.712a11.15 11.15 0 00-2.726-.024l-.968-1.742a1.268 1.268 0 00-1.591-.558l-2.766 1.14a1.27 1.27 0 00-.735 1.518l.524 1.85a11.302 11.302 0 00-2.073 2.031l-1.825-.521c-.62-.178-1.27.14-1.52.73l-1.148 2.762a1.265 1.265 0 00.554 1.593l1.63.916a11.045 11.045 0 00-.015 2.868l-1.57.87a1.268 1.268 0 00-.559 1.592L5.875 24.8c.245.593.896.91 1.518.735l1.704-.48a11.16 11.16 0 001.98 2.012l-.479 1.678c-.177.62.14 1.27.73 1.52l2.756 1.146c.595.247 1.278.01 1.593-.554l.826-1.48c.99.14 1.99.144 2.983.016l.84 1.513a1.27 1.27 0 001.592.558l2.766-1.141c.593-.245.91-.896.734-1.518l-.47-1.665a11.108 11.108 0 002.153-2.179l1.691.485c.62.177 1.27-.14 1.52-.73l1.149-2.762a1.265 1.265 0 00-.554-1.593l-1.622-.909a10.88 10.88 0 00-.044-2.839l1.625-.898c.564-.314.802-.998.558-1.59l-1.141-2.766a1.268 1.268 0 00-1.518-.735l-1.883.533zm-6.934 11.616a4.953 4.953 0 01-6.46-2.686 4.954 4.954 0 012.687-6.459 4.953 4.953 0 016.459 2.686 4.953 4.953 0 01-2.686 6.46z" fill="#fff"/></svg>