<svg width="23" height="22" fill="none" xmlns="http://www.w3.org/2000/svg"><path d="M16.344 6.747a6.948 6.948 0 00-1.136-1.114l.328-1.143a.768.768 0 00-.447-.916l-1.681-.697a.77.77 0 00-.968.331l-.579 1.029a6.866 6.866 0 00-1.657-.02l-.592-1.05a.778.778 0 00-.968-.34l-1.68.682a.756.756 0 00-.443.912l.322 1.114c-.471.352-.892.76-1.256 1.219l-1.11-.317a.77.77 0 00-.924.437l-.693 1.66a.762.762 0 00.34.96l.993.554a6.58 6.58 0 00-.003 1.726l-.953.52a.756.756 0 00-.337.957l.7 1.667c.15.357.546.55.923.445l1.036-.286c.35.456.756.863 1.207 1.215l-.288 1.01a.768.768 0 00.447.916l1.677.694a.77.77 0 00.968-.33l.5-.889c.601.086 1.209.09 1.813.015l.514.912c.192.34.608.485.968.34l1.68-.682a.756.756 0 00.443-.912l-.289-1.003a6.656 6.656 0 001.305-1.308l1.029.295a.77.77 0 00.922-.436l.693-1.66a.762.762 0 00-.34-.96l-.987-.55a6.497 6.497 0 00-.032-1.709l.985-.537a.756.756 0 00.337-.957l-.7-1.667a.778.778 0 00-.923-.445l-1.144.318zm-4.193 6.978a3.039 3.039 0 01-3.932-1.63 2.955 2.955 0 011.62-3.881 3.039 3.039 0 013.932 1.628 2.955 2.955 0 01-1.62 3.883z" fill="#4B39BE"/></svg>