<svg width="992" height="742" fill="none" xmlns="http://www.w3.org/2000/svg"><g clip-path="url(#clip0)"><path fill="#FAFAFA" d="M992 0v742H0V0z"/><path d="M-1 432.5L555.5 210l53-208" stroke="#000" stroke-opacity=".07" stroke-linecap="round" stroke-linejoin="round"/><path d="M0 457.5l571.5-228L659 .5" stroke="#000" stroke-opacity=".07" stroke-linecap="round" stroke-linejoin="round"/><path d="M-1 485.5L589.5 251 718 0" stroke="#000" stroke-opacity=".07" stroke-linecap="round" stroke-linejoin="round"/><path d="M-1 515.5l604.5-240L784 1" stroke="#000" stroke-opacity=".07" stroke-linecap="round" stroke-linejoin="round"/><path d="M-1 544.5l613.5-244L855.5 1" stroke="#4B39BE" stroke-opacity=".1" stroke-linecap="round" stroke-linejoin="round"/><path d="M-1 577.5L626 325 954.5 1m-884 741.5l588.001-249.501L991.5 697" stroke="#000" stroke-opacity=".07" stroke-linecap="round" stroke-linejoin="round"/><path d="M-.5 741l654.906-277.465L991 628.5" stroke="#000" stroke-opacity=".07" stroke-linecap="round" stroke-linejoin="round"/><path d="M0 707l653.301-271.895L992 558" stroke="#000" stroke-opacity=".07" stroke-linecap="round" stroke-linejoin="round"/><path d="M.5 674.5l645.276-266.159L991.5 490.5" stroke="#4B39BE" stroke-opacity=".15" stroke-linecap="round" stroke-linejoin="round"/><path d="M0 642l635.665-258.632 383.455 47.166" stroke="#000" stroke-opacity=".07" stroke-linecap="round" stroke-linejoin="round"/><path d="M0 610.008l628.303-253.557L992 360" stroke="#000" stroke-opacity=".07" stroke-linecap="round" stroke-linejoin="round"/></g><defs><clipPath id="clip0"><path fill="#fff" d="M0 0h992v742H0z"/></clipPath></defs></svg>