<svg width="199" height="70" fill="none" xmlns="http://www.w3.org/2000/svg"><path d="M9.911 19.327l-.155 1.727.582-.909L24.593 5.453l6.048.04-14.448 14.834 15.04 19.874-5.904-.038-12.563-16.93-2.946 2.813-.043 14.016-4.752-.03.224-34.704 4.752.03-.09 13.969zM37.874 5.539l4.656.03-.196 30.191 17.664.115-.029 4.511-22.32-.144.225-34.703zm29.858.193l4.656.03-.224 34.703-4.656-.03.224-34.703zm32.537 6.402a25.297 25.297 0 00-3.878-1.609c-1.405-.457-2.764-.69-4.076-.698-1.888-.012-3.394.41-4.52 1.267-1.093.857-1.645 2.021-1.654 3.493-.007 1.056.339 1.954 1.038 2.695.731.74 1.655 1.402 2.771 1.986a48.118 48.118 0 003.638 1.56 29.22 29.22 0 014.164 1.994 9.648 9.648 0 013.291 3.142c.888 1.285 1.325 3.016 1.311 5.192-.012 1.856-.487 3.533-1.425 5.031-.937 1.466-2.257 2.642-3.959 3.527-1.701.853-3.72 1.272-6.056 1.256-2.304-.014-4.445-.396-6.424-1.145-1.948-.749-3.606-1.607-4.976-2.576l2.088-3.683c1.114.871 2.485 1.632 4.113 2.283 1.66.65 3.242.98 4.746.99a9.477 9.477 0 003.267-.554c1.091-.377 1.99-.98 2.7-1.807.71-.86 1.069-1.961 1.078-3.305.007-1.152-.307-2.13-.941-2.934-.635-.804-1.463-1.482-2.483-2.032a21.99 21.99 0 00-3.254-1.558 39.973 39.973 0 01-3.304-1.365 17.712 17.712 0 01-3.108-1.844 8.723 8.723 0 01-2.238-2.703c-.57-1.06-.85-2.341-.84-3.845.012-1.824.455-3.405 1.327-4.743.905-1.37 2.128-2.435 3.669-3.193 1.541-.79 3.32-1.21 5.336-1.261 2.208.014 4.158.298 5.85.853 1.725.556 3.241 1.221 4.548 1.998l-1.799 3.588zm37.528-5.95l-.224 34.704-4.704-.03.099-15.216-18.144-.117-.098 15.215-4.656-.03.224-34.703 4.656.03-.097 15.024 18.143.117.098-15.024 4.703.03zm9.996.065l4.656.03-.224 34.704-4.656-.03.224-34.704zm44.489 36.096l-25.321-25.988-.063 24.72-4.704-.03.231-35.76.24.002 25.27 26.372.066-25.152 4.656.03-.231 35.807h-.144zM22.002 62.902c-.265.174-.626.37-1.082.587a8.846 8.846 0 01-1.61.562 7.689 7.689 0 01-1.98.185c-1.247-.023-2.36-.25-3.34-.682a7.705 7.705 0 01-2.52-1.754 7.934 7.934 0 01-1.567-2.562 8.445 8.445 0 01-.53-3.062c.007-1.188.205-2.28.592-3.274a7.874 7.874 0 011.667-2.607 7.391 7.391 0 012.498-1.722c.97-.405 2.027-.603 3.171-.596.954.006 1.818.144 2.594.413.776.254 1.441.552 1.996.893l-.87 1.996a9.56 9.56 0 00-1.601-.846 5.303 5.303 0 00-2.066-.41 5.126 5.126 0 00-2.203.47 5.694 5.694 0 00-1.834 1.287 6.04 6.04 0 00-1.267 1.927 6.34 6.34 0 00-.455 2.373c-.007 1.145.22 2.18.684 3.107a5.508 5.508 0 002.01 2.17c.877.533 1.902.803 3.075.81.821.006 1.54-.106 2.158-.337.632-.245 1.155-.528 1.567-.848l.912 1.92zm4.965-7.888l.14 2.135c.252-.512.6-.95 1.042-1.313a4.92 4.92 0 011.37-.85c.485-.202.904-.31 1.256-.322l-.101 2.046c-.69-.034-1.299.101-1.829.406-.53.29-.943.69-1.24 1.202a3.272 3.272 0 00-.45 1.647l-.027 4.158-2.046-.013.059-9.108 1.826.012zm10.222 9.394c-1.027-.007-1.92-.218-2.68-.633a4.5 4.5 0 01-1.727-1.75c-.391-.735-.584-1.565-.578-2.49a4.656 4.656 0 01.676-2.437 4.89 4.89 0 011.837-1.748c.78-.435 1.64-.65 2.579-.643 1.202.007 2.197.366 2.985 1.075.787.709 1.324 1.68 1.609 2.914l-7.232 2.484c.246.456.596.818 1.049 1.084.453.253.965.38 1.537.384.41.003.8-.068 1.168-.212.367-.144.72-.333 1.06-.565l.935 1.524c-.47.305-.993.55-1.566.738a5.078 5.078 0 01-1.652.275zm-2.96-4.97c-.016.177-.01.345.019.507l5.314-1.924a3.43 3.43 0 00-.894-1.172c-.38-.34-.892-.511-1.537-.515-.836-.006-1.527.283-2.074.866-.546.583-.822 1.33-.828 2.239zM48.2 64.48c-.865-.005-1.649-.194-2.35-.565a4.133 4.133 0 01-1.64-1.617c-.391-.72-.583-1.595-.577-2.621.007-1.027.218-1.906.633-2.636.43-.73.999-1.292 1.705-1.683a4.798 4.798 0 012.358-.58c.821.006 1.517.187 2.087.542.57.356 1.014.784 1.333 1.285l.163-1.429 1.892.012-.058 9.108-2.046-.013.01-1.496a4.202 4.202 0 01-.776.743 4.59 4.59 0 01-1.192.674 3.94 3.94 0 01-1.542.276zm.561-1.69c.748.005 1.388-.197 1.918-.604.53-.422.88-.992 1.045-1.71l.012-1.803c-.172-.632-.535-1.155-1.09-1.57a3.142 3.142 0 00-1.91-.627 2.969 2.969 0 00-1.52.386 3.043 3.043 0 00-1.108 1.093c-.267.467-.402 1.009-.406 1.625a3.204 3.204 0 00.407 1.63c.276.472.648.855 1.115 1.152.468.282.98.424 1.537.428zm9.511-11.577l2.068.013-.026 4.026 2.486.016-.01 1.628-2.486-.016-.048 7.458-2.068-.013.048-7.458-1.672-.01.01-1.629 1.672.011.026-4.026zm7.022 4.05l2.046.013-.059 9.107-2.046-.013.06-9.108zm-.133-3.28c.002-.337.129-.607.38-.811.265-.218.552-.326.86-.324.308.002.586.113.834.335.248.207.37.479.368.816a1.066 1.066 0 01-.38.834c-.25.204-.53.304-.837.303a1.37 1.37 0 01-.856-.314 1.066 1.066 0 01-.369-.838zm9.376 12.711l-5-9.404 2.442.016 2.713 5.847 2.59-5.813 2.287.015-4.922 9.34h-.11zm11.184.029c-1.027-.007-1.92-.218-2.68-.634a4.5 4.5 0 01-1.727-1.749c-.39-.736-.583-1.566-.578-2.49a4.656 4.656 0 01.676-2.437 4.89 4.89 0 011.837-1.748c.78-.435 1.64-.65 2.579-.644 1.202.008 2.197.366 2.985 1.075.787.71 1.324 1.681 1.61 2.915l-7.233 2.483c.246.456.596.818 1.049 1.085.453.252.965.38 1.537.384.411.003.8-.068 1.168-.212.367-.145.72-.333 1.06-.566l.936 1.525a6.74 6.74 0 01-1.567.737 5.078 5.078 0 01-1.652.276zm-2.96-4.97c-.016.176-.01.345.019.507l5.314-1.924a3.43 3.43 0 00-.894-1.172c-.38-.34-.892-.512-1.537-.516-.836-.005-1.527.284-2.073.867-.547.583-.823 1.33-.829 2.238zm30.152 4.925l-2.486-.016-1.309-1.768c-.458.569-1.07 1.042-1.835 1.418-.751.362-1.646.54-2.688.533-.997-.007-1.89-.218-2.68-.634-.789-.415-1.409-.977-1.859-1.684-.45-.707-.68-1.515-.688-2.424a4.12 4.12 0 01.607-2.086 5.18 5.18 0 011.529-1.618 6.305 6.305 0 012.074-.933l-.698-.95a9.644 9.644 0 01-.718-1.26 3.742 3.742 0 01-.385-1.696 3.47 3.47 0 01.473-1.735 3.68 3.68 0 011.329-1.355c.589-.348 1.301-.52 2.137-.514.866.005 1.635.186 2.307.543.687.341 1.249.74 1.686 1.198l-1.065 1.424a8.247 8.247 0 00-1.336-.977c-.423-.252-.848-.38-1.273-.382-.631-.004-1.131.19-1.5.584a1.93 1.93 0 00-.559 1.382c-.002.28.048.558.149.837.115.265.231.5.347.707.116.191.189.309.218.353l4.187 5.637 1.544-3.95 1.98.013-2.259 5.64 2.771 3.713zm-11.301-4.649c-.003.572.14 1.08.431 1.521.29.427.684.767 1.181 1.02a3.974 3.974 0 001.67.363c.748.004 1.379-.138 1.894-.428.516-.305.914-.676 1.196-1.114l-3.294-4.422a3.46 3.46 0 00-1.499.474 3.42 3.42 0 00-1.151 1.093 2.736 2.736 0 00-.428 1.493zm21.706 4.717l.103-15.906 4.356.028c1.569.01 2.902.26 3.999.752 1.097.476 1.98 1.113 2.65 1.91a7.418 7.418 0 011.479 2.649c.316.955.471 1.917.465 2.885-.008 1.188-.227 2.264-.659 3.23a7.326 7.326 0 01-1.754 2.43 7.863 7.863 0 01-2.54 1.546 8.39 8.39 0 01-2.973.509l-5.126-.033zm2.147-2.055l2.574.017c1.159.008 2.194-.213 3.107-.662a5.166 5.166 0 002.19-1.966c.534-.876.805-1.938.813-3.184.008-1.291-.263-2.378-.815-3.262a5.3 5.3 0 00-2.165-2.016 6.226 6.226 0 00-2.855-.7l-2.772-.018-.077 11.791zm13.992-6.95l2.046.014-.059 9.108-2.046-.013.059-9.108zm-.133-3.278a1 1 0 01.379-.812c.265-.218.552-.326.86-.324.308.002.586.114.834.335.248.207.371.48.369.817a1.066 1.066 0 01-.38.833 1.28 1.28 0 01-.838.303 1.37 1.37 0 01-.856-.314 1.066 1.066 0 01-.368-.838zm10.052 16.961c-1.012-.006-1.854-.188-2.527-.544a8.062 8.062 0 01-1.861-1.31l1.219-1.4c.466.472.948.827 1.445 1.065.497.253 1.061.38 1.691.385 1.027.007 1.813-.238 2.359-.733.546-.48.829-1.124.849-1.93l.011-1.672c-.312.54-.791.985-1.439 1.332-.648.348-1.411.52-2.291.513a4.423 4.423 0 01-2.328-.653 4.932 4.932 0 01-1.661-1.726c-.406-.736-.606-1.559-.6-2.468.006-.953.231-1.795.676-2.526a4.758 4.758 0 011.749-1.705 4.541 4.541 0 012.358-.622c.792.005 1.51.163 2.153.475.644.313 1.125.712 1.444 1.198l.185-1.275 1.87.012-.06 9.174a4.117 4.117 0 01-.652 2.24c-.43.672-1.035 1.203-1.814 1.594-.78.391-1.706.583-2.776.576zm-3.065-9.194a3.198 3.198 0 00.408 1.63c.275.472.647.856 1.114 1.152a3.161 3.161 0 001.603.428c.792.005 1.468-.203 2.029-.624.574-.437.945-.992 1.11-1.665l.012-1.804a2.928 2.928 0 00-1.134-1.592c-.569-.414-1.228-.624-1.976-.628a3.34 3.34 0 00-1.63.385 2.986 2.986 0 00-1.129 1.093c-.267.467-.403 1.01-.407 1.625zm11.923-4.367l2.046.013-.059 9.108-2.046-.013.059-9.108zm-.133-3.279a1 1 0 01.379-.811 1.31 1.31 0 01.86-.325c.308.002.586.114.834.335.248.208.371.48.369.817a1.066 1.066 0 01-.38.834c-.25.203-.53.304-.838.302a1.37 1.37 0 01-.856-.313 1.066 1.066 0 01-.368-.839zm6.646-.683l2.068.014-.026 4.025 2.486.016-.011 1.628-2.486-.016-.048 7.458-2.068-.013.048-7.458-1.672-.01.011-1.629 1.672.011.026-4.026zm10.767 13.402c-.865-.006-1.649-.194-2.35-.565a4.133 4.133 0 01-1.64-1.617c-.391-.721-.584-1.595-.577-2.622.007-1.026.218-1.905.633-2.636a4.47 4.47 0 011.705-1.683 4.796 4.796 0 012.358-.578c.821.005 1.517.185 2.086.541.57.356 1.015.784 1.334 1.285l.163-1.43 1.892.013-.059 9.108-2.046-.013.01-1.496c-.177.233-.436.48-.775.743a4.593 4.593 0 01-1.192.674 3.95 3.95 0 01-1.542.276zm.561-1.69c.748.004 1.387-.197 1.918-.604.531-.422.879-.992 1.045-1.71l.012-1.803c-.172-.632-.536-1.155-1.09-1.57a3.145 3.145 0 00-1.91-.628 2.97 2.97 0 00-1.521.386 3.047 3.047 0 00-1.107 1.093c-.267.468-.402 1.01-.406 1.626a3.208 3.208 0 00.407 1.63c.276.472.647.855 1.115 1.152.467.281.98.424 1.537.428zm8.657-15.52l2.046.012-.111 17.05-2.046-.013.111-17.05z" fill="#000"/></svg>