<svg width="165" height="74" viewBox="0 0 165 74" fill="none" xmlns="http://www.w3.org/2000/svg">
<path d="M8.37181 15.7719L8.2425 17.2111L8.76714 16.4945L20.6868 4.21122L25.6867 4.24353L13.6468 16.566L26.1798 33.1673L21.2599 33.1355L10.7908 19.0276L8.33562 21.3718L8.26014 33.0515L4.34023 33.0262L4.5271 4.10679L8.44702 4.13212L8.37181 15.7719ZM31.675 4.28222L35.5549 4.3073L35.3921 29.5068L50.0717 29.6016L50.0477 33.3216L31.4881 33.2016L31.675 4.28222ZM56.5573 4.44301L60.4372 4.46809L60.2503 33.3875L56.3704 33.3624L56.5573 4.44301ZM83.6709 9.77833C82.6875 9.2653 81.6103 8.81833 80.4395 8.43742C79.2686 8.05651 78.1231 7.86244 77.0031 7.8552C75.4565 7.84521 74.2142 8.19719 73.2762 8.91114C72.3649 9.62527 71.9054 10.5823 71.8977 11.7823C71.8918 12.6889 72.1801 13.4642 72.7626 14.1079C73.3453 14.725 74.1152 15.2634 75.0723 15.7229C76.0293 16.1824 77.0265 16.6155 78.0639 17.0222C78.9683 17.3748 79.8592 17.7672 80.7364 18.1995C81.6136 18.6319 82.3968 19.1703 83.086 19.8148C83.8018 20.4594 84.3567 21.2497 84.7507 22.1856C85.1713 23.1216 85.3772 24.283 85.3682 25.6696C85.3584 27.1896 84.9628 28.5737 84.1813 29.822C83.4266 31.0705 82.3402 32.0502 80.9223 32.761C79.5043 33.4719 77.822 33.821 75.8754 33.8085C74.5954 33.8002 73.3697 33.6456 72.1983 33.3447C71.0536 33.044 69.9894 32.6637 69.0056 32.204C68.0221 31.7177 67.1453 31.2187 66.3753 30.707L68.1149 27.6782C68.7519 28.1356 69.4824 28.5804 70.3063 29.0124C71.1304 29.4177 71.9948 29.7566 72.8998 30.0292C73.8049 30.275 74.6841 30.4007 75.5374 30.4062C76.444 30.4121 77.3384 30.2578 78.2204 29.9435C79.1293 29.6027 79.8793 29.0876 80.4705 28.398C81.0616 27.7085 81.3609 26.7904 81.3683 25.6438C81.3747 24.6571 81.1133 23.8421 80.5841 23.1987C80.0817 22.5287 79.4054 21.9644 78.555 21.5055C77.7048 21.02 76.8009 20.5875 75.8433 20.208C74.9389 19.8554 74.0213 19.4762 73.0906 19.0702C72.16 18.6375 71.2967 18.1252 70.5005 17.5334C69.7044 16.9149 69.0693 16.1641 68.595 15.281C68.1207 14.3979 67.8876 13.3297 67.8957 12.0764C67.9055 10.5565 68.274 9.23883 69.0012 8.1235C69.7553 6.98168 70.7744 6.09492 72.0585 5.4632C73.3428 4.80482 74.8117 4.45431 76.4654 4.41166C78.332 4.42372 79.9705 4.66098 81.3809 5.12344C82.8179 5.58606 84.0809 6.15424 85.17 6.82796L83.6709 9.77833ZM114.905 4.82006L114.718 33.7395L110.878 33.7146L110.96 21.0349L95.8003 20.9369L95.7183 33.6167L91.8384 33.5916L92.0253 4.67221L95.9052 4.69728L95.824 17.257L110.984 17.355L111.065 4.79524L114.905 4.82006ZM123.236 4.87389L127.115 4.89896L126.929 33.8184L123.049 33.7933L123.236 4.87389ZM160.269 34.9538L138.056 12.1298L139.175 12.417L139.116 33.8971L135.236 33.872L135.428 4.07266L135.628 4.07395L157.601 26.9764L156.682 26.7705L156.742 5.09041L160.582 5.11522L160.389 34.9546L160.269 34.9538Z" fill="#F5F5F5"/>
<path d="M14.1693 59.7752C13.9885 59.8941 13.7427 60.0275 13.4317 60.1755C13.1207 60.3235 12.7549 60.4461 12.3343 60.5434C11.9236 60.6407 11.4733 60.6878 10.9833 60.6847C10.1434 60.6692 9.38441 60.5143 8.7063 60.2199C8.03819 59.9256 7.47075 59.527 7.00399 59.0239C6.53724 58.5209 6.17596 57.9436 5.92016 57.2919C5.67443 56.6303 5.55396 55.9295 5.55874 55.1895C5.56398 54.3795 5.69879 53.6354 5.96318 52.9571C6.23763 52.2688 6.61647 51.6763 7.09969 51.1794C7.58297 50.6725 8.15051 50.2812 8.80231 50.0054C9.4641 49.7296 10.185 49.5943 10.965 49.5993C11.615 49.6035 12.2044 49.6973 12.7332 49.8808C13.2621 50.0542 13.7158 50.2621 14.0942 50.5046L13.5005 51.8508C13.2018 51.6488 12.838 51.4565 12.4092 51.2737C11.9904 51.091 11.521 50.9979 11.001 50.9946C10.471 50.9912 9.97031 51.0929 9.49896 51.2999C9.02761 51.5068 8.61071 51.7992 8.24827 52.1768C7.88582 52.5545 7.59795 52.9976 7.38466 53.5063C7.18143 54.005 7.07794 54.5443 7.0742 55.1243C7.07038 55.7143 7.15683 56.2649 7.33353 56.776C7.52029 57.2772 7.78248 57.7139 8.12008 58.0861C8.46768 58.4584 8.8858 58.7511 9.37443 58.9642C9.86306 59.1774 10.4124 59.286 11.0224 59.2899C11.5723 59.2934 12.0629 59.2116 12.494 59.0444C12.9251 58.8772 13.2813 58.6895 13.5626 58.4813L14.1693 59.7752ZM17.5542 54.397L17.6775 56.1978L17.6041 55.9574C17.7665 55.5784 17.9986 55.2599 18.3003 55.0018C18.612 54.7338 18.9333 54.5309 19.2642 54.3931C19.6052 54.2453 19.9007 54.1722 20.1506 54.1738L20.0667 55.5533C19.5969 55.5202 19.1814 55.6075 18.82 55.8152C18.4687 56.0229 18.1869 56.3011 17.9746 56.6498C17.7723 56.9985 17.6699 57.3728 17.6673 57.7728L17.649 60.6077L16.2691 60.5988L16.3092 54.389L17.5542 54.397ZM24.5239 60.8022C23.8139 60.7976 23.2048 60.6536 22.6966 60.3704C22.1885 60.0771 21.796 59.6845 21.5192 59.1927C21.2525 58.691 21.1211 58.1201 21.1253 57.4801C21.1292 56.8702 21.2878 56.3162 21.601 55.8182C21.9143 55.3202 22.3318 54.9229 22.8538 54.6263C23.3757 54.3296 23.9566 54.1834 24.5966 54.1875C25.4166 54.1928 26.095 54.4372 26.6319 54.9207C27.1688 55.4042 27.5295 56.0665 27.7141 56.9077L22.5876 58.6746L22.2629 57.8475L26.4727 56.3447L26.1715 56.5377C26.0536 56.207 25.8555 55.9207 25.577 55.6789C25.2986 55.4271 24.9344 55.2997 24.4845 55.2968C24.1045 55.2943 23.7639 55.3871 23.4626 55.5752C23.1615 55.7533 22.9249 56.0017 22.7528 56.3206C22.5807 56.6395 22.4934 57.004 22.4907 57.414C22.488 57.844 22.5755 58.2245 22.7534 58.5557C22.9313 58.8768 23.1746 59.1334 23.4834 59.3254C23.8022 59.5075 24.1616 59.5998 24.5616 59.6024C24.8316 59.6041 25.092 59.5558 25.3426 59.4574C25.6032 59.3591 25.8441 59.2307 26.0651 59.0721L26.7034 60.1112C26.392 60.3192 26.041 60.487 25.6501 60.6144C25.2693 60.742 24.8939 60.8046 24.5239 60.8022ZM32.0167 60.8506C31.4367 60.8468 30.9075 60.7184 30.4292 60.4653C29.9608 60.2123 29.5881 59.8449 29.3113 59.3631C29.0444 58.8713 28.9133 58.2755 28.9178 57.5755C28.9223 56.8855 29.0711 56.2915 29.3643 55.7933C29.6576 55.2852 30.0451 54.8977 30.5269 54.6308C31.0186 54.364 31.5545 54.2325 32.1344 54.2362C32.7144 54.24 33.2035 54.3781 33.6018 54.6507C34.0001 54.9133 34.3031 55.2252 34.5108 55.5866L34.4192 55.826L34.5627 54.5069L35.8527 54.5152L35.8126 60.7251L34.4176 60.7161L34.4281 59.0961L34.5758 59.4571C34.5351 59.5568 34.4443 59.6863 34.3032 59.8453C34.1723 59.9945 33.9913 60.1483 33.7602 60.3068C33.5392 60.4654 33.2834 60.5988 32.9926 60.7069C32.702 60.805 32.3767 60.8529 32.0167 60.8506ZM32.3992 59.698C32.7491 59.7003 33.0646 59.6373 33.3454 59.5091C33.6262 59.381 33.8574 59.2025 34.0389 58.9736C34.2304 58.7349 34.3623 58.4507 34.4344 58.1212L34.4422 56.9062C34.3642 56.6057 34.2259 56.3448 34.0273 56.1235C33.8288 55.8922 33.5899 55.7156 33.3107 55.5938C33.0315 55.462 32.722 55.395 32.382 55.3928C32.012 55.3904 31.6714 55.4782 31.3602 55.6562C31.0491 55.8342 30.7975 56.0826 30.6054 56.4014C30.4234 56.7202 30.3309 57.0946 30.3282 57.5246C30.3256 57.9246 30.4182 58.2902 30.6061 58.6214C30.7939 58.9527 31.0473 59.2143 31.366 59.4064C31.6848 59.5984 32.0292 59.6956 32.3992 59.698ZM38.8844 51.8048L40.2793 51.8138L40.2615 54.5737L41.9715 54.5848L41.9644 55.6798L40.2544 55.6687L40.2216 60.7536L38.8266 60.7446L38.8594 55.6597L37.7195 55.6523L37.7265 54.5574L38.8665 54.5647L38.8844 51.8048ZM43.6572 54.5657L45.0522 54.5747L45.0121 60.7846L43.6171 60.7756L43.6572 54.5657ZM43.5668 52.315C43.5682 52.0951 43.6544 51.9106 43.8254 51.7617C44.0063 51.6129 44.2018 51.5391 44.4118 51.5405C44.6218 51.5418 44.8063 51.618 44.9653 51.7691C45.1344 51.9202 45.2182 52.1057 45.2167 52.3257C45.2153 52.5557 45.129 52.7452 44.9581 52.8941C44.7972 53.033 44.6117 53.1018 44.4017 53.1005C44.1917 53.0991 43.9972 53.0228 43.8182 52.8717C43.6492 52.7206 43.5654 52.535 43.5668 52.315ZM49.9444 60.9964L46.5358 54.5843L48.1857 54.5949L50.4938 59.545L49.639 59.5094L51.8157 54.6184L53.3756 54.6285L50.0194 60.9969L49.9444 60.9964ZM57.5701 61.0157C56.8601 61.0111 56.251 60.8672 55.7428 60.5839C55.2347 60.2906 54.8422 59.8981 54.5654 59.4063C54.2986 58.9045 54.1673 58.3337 54.1715 57.6937C54.1754 57.0837 54.334 56.5297 54.6472 56.0317C54.9604 55.5337 55.378 55.1364 55.8999 54.8398C56.4219 54.5432 57.0028 54.3969 57.6428 54.401C58.4628 54.4063 59.1412 54.6507 59.6781 55.1342C60.215 55.6177 60.5757 56.28 60.7603 57.1213L55.6338 58.8882L55.3091 58.061L59.5189 56.5582L59.2177 56.7513C59.0998 56.4205 58.9016 56.1342 58.6232 55.8924C58.3448 55.6406 57.9806 55.5133 57.5306 55.5103C57.1507 55.5079 56.81 55.6007 56.5088 55.7888C56.2077 55.9668 55.9711 56.2153 55.799 56.5342C55.6269 56.8531 55.5396 57.2175 55.5369 57.6275C55.5341 58.0575 55.6217 58.4381 55.7995 58.7692C55.9775 59.0904 56.2208 59.347 56.5296 59.539C56.8484 59.721 57.2078 59.8134 57.6078 59.8159C57.8778 59.8177 58.1381 59.7694 58.3888 59.671C58.6494 59.5727 58.8903 59.4442 59.1113 59.2856L59.7496 60.3248C59.4382 60.5328 59.0871 60.7005 58.6963 60.828C58.3155 60.9555 57.9401 61.0181 57.5701 61.0157ZM76.0947 60.9854C76.0147 60.9849 75.8797 60.984 75.6897 60.9828C75.5097 60.9816 75.3197 60.9804 75.1197 60.9791C74.9297 60.9779 74.7647 60.9768 74.6247 60.9759C74.4847 60.975 74.4147 60.9746 74.4147 60.9746L69.2543 54.0561C69.1653 53.9155 69.0614 53.7398 68.9427 53.529C68.8241 53.3183 68.7206 53.0876 68.6322 52.837C68.5539 52.5765 68.5156 52.3113 68.5174 52.0413C68.5201 51.6113 68.6277 51.212 68.8401 50.8433C69.0525 50.4647 69.3545 50.1616 69.746 49.9342C70.1475 49.7068 70.6332 49.5949 71.2032 49.5986C71.7932 49.6024 72.3174 49.7208 72.7759 49.9537C73.2444 50.1868 73.6277 50.4593 73.9257 50.7712L73.1844 51.7414C72.8862 51.4595 72.5876 51.2376 72.2887 51.0756C71.9998 50.9037 71.7103 50.8169 71.4203 50.815C70.9803 50.8122 70.6345 50.9449 70.3827 51.2133C70.1411 51.4718 70.019 51.786 70.0166 52.156C70.0155 52.336 70.0493 52.5212 70.1181 52.7116C70.1968 52.9021 70.2708 53.0626 70.3399 53.1931C70.4191 53.3236 70.4686 53.4089 70.4883 53.449L76.0947 60.9854ZM70.6386 55.7301C70.3586 55.7282 70.0832 55.7815 69.8125 55.8897C69.5418 55.998 69.3008 56.1464 69.0896 56.3351C68.8784 56.5237 68.7069 56.7476 68.5753 57.0067C68.4537 57.256 68.3919 57.5256 68.39 57.8156C68.3875 58.2056 68.4853 58.5512 68.6833 58.8525C68.8915 59.1438 69.165 59.3756 69.5039 59.5478C69.8528 59.7101 70.2323 59.7925 70.6423 59.7952C71.0223 59.7976 71.3576 59.7448 71.6483 59.6367C71.9391 59.5185 72.1901 59.3652 72.4013 59.1765C72.6126 58.9779 72.769 58.7639 72.8705 58.5345L73.7952 59.3505C73.522 59.8488 73.0993 60.266 72.5271 60.6024C71.9649 60.9387 71.2738 61.1043 70.4539 61.099C69.7739 61.0946 69.1648 60.9506 68.6266 60.6672C68.0884 60.3837 67.6609 60.0009 67.344 59.5188C67.0371 59.0369 66.8856 58.4909 66.8896 57.8809C66.8926 57.4109 67.0004 56.9766 67.213 56.5779C67.4256 56.1793 67.7078 55.8361 68.0597 55.5484C68.4216 55.2507 68.8181 55.0183 69.2492 54.8511C69.6903 54.6839 70.1459 54.5968 70.6159 54.5899L70.6386 55.7301ZM74.4108 54.6144L75.7458 54.623L73.9618 59.1116L72.9161 58.4448L74.4108 54.6144ZM83.1898 61.0313L83.2599 50.1865L86.2148 50.2056C87.2848 50.2125 88.1937 50.3834 88.9416 50.7182C89.6994 51.0531 90.3066 51.4921 90.7631 52.035C91.2196 52.578 91.5507 53.1801 91.7564 53.8415C91.9722 54.4929 92.078 55.1436 92.0738 55.7936C92.0685 56.6136 91.9188 57.3476 91.6246 57.9957C91.3404 58.6439 90.9468 59.1964 90.4439 59.6531C89.9409 60.1099 89.3636 60.4612 88.712 60.7069C88.0705 60.9428 87.3897 61.0584 86.6697 61.0538L83.1898 61.0313ZM84.6538 59.6457L86.3937 59.6569C86.9937 59.6608 87.5443 59.5744 88.0455 59.3976C88.5566 59.2209 88.9983 58.9638 89.3705 58.6262C89.7527 58.2886 90.0503 57.8755 90.2635 57.3869C90.4767 56.8883 90.5854 56.324 90.5894 55.694C90.5938 55.024 90.4876 54.4383 90.2708 53.9369C90.0541 53.4255 89.7568 52.9985 89.379 52.6561C89.0013 52.3136 88.5729 52.0559 88.094 51.8828C87.6152 51.6997 87.1108 51.6064 86.5808 51.603L84.7058 51.5909L84.6538 59.6457ZM94.1786 54.8921L95.5736 54.9012L95.5335 61.111L94.1385 61.102L94.1786 54.8921ZM94.0882 52.6415C94.0896 52.4215 94.1758 52.2371 94.3468 52.0882C94.5277 51.9393 94.7232 51.8656 94.9332 51.867C95.1432 51.8683 95.3277 51.9445 95.4867 52.0955C95.6558 52.2466 95.7396 52.4322 95.7382 52.6522C95.7367 52.8822 95.6504 53.0716 95.4795 53.2205C95.3186 53.3595 95.1331 53.4283 94.9231 53.4269C94.7131 53.4256 94.5186 53.3493 94.3396 53.1982C94.1706 53.0471 94.0868 52.8615 94.0882 52.6415ZM100.912 64.2209C100.452 64.2179 100.047 64.1603 99.6982 64.048C99.3488 63.9457 99.0298 63.7987 98.741 63.6068C98.4623 63.415 98.1936 63.1983 97.9352 62.9566L98.7513 62.0168C99.0793 62.329 99.4127 62.5711 99.7516 62.7433C100.091 62.9155 100.47 63.003 100.89 63.0057C101.36 63.0087 101.755 62.9313 102.076 62.7733C102.407 62.6255 102.659 62.4121 102.831 62.1332C103.002 61.8643 103.089 61.5499 103.092 61.1899L103.118 59.51L103.236 59.7808C103.053 60.2096 102.726 60.5725 102.254 60.8695C101.782 61.1564 101.211 61.2977 100.541 61.2934C99.971 61.2897 99.447 61.1413 98.9688 60.8482C98.5007 60.5552 98.1233 60.1627 97.8364 59.6709C97.5597 59.1691 97.4233 58.6082 97.4273 57.9882C97.4315 57.3382 97.5852 56.7692 97.8883 56.2812C98.1916 55.7831 98.5891 55.3907 99.081 55.1038C99.5728 54.817 100.109 54.6755 100.689 54.6792C101.239 54.6828 101.738 54.801 102.186 55.0339C102.645 55.2569 102.978 55.544 103.186 55.8954L103.109 56.1499L103.267 54.9509L104.542 54.9591L104.502 61.214C104.498 61.774 104.35 62.283 104.057 62.7411C103.764 63.1993 103.351 63.5616 102.82 63.8282C102.288 64.0947 101.652 64.2256 100.912 64.2209ZM98.8225 57.9672C98.8199 58.3672 98.9125 58.7328 99.1004 59.064C99.2882 59.3953 99.5416 59.6569 99.8603 59.849C100.189 60.0411 100.553 60.1385 100.953 60.141C101.323 60.1434 101.654 60.0806 101.945 59.9524C102.246 59.8144 102.497 59.631 102.698 59.4023C102.9 59.1636 103.042 58.8895 103.124 58.58L103.132 57.3501C103.043 57.0495 102.895 56.7885 102.687 56.5672C102.478 56.3358 102.229 56.1592 101.94 56.0373C101.651 55.9055 101.331 55.8384 100.981 55.8361C100.581 55.8335 100.216 55.9212 99.8846 56.099C99.5634 56.277 99.3068 56.5303 99.1146 56.8591C98.9226 57.1779 98.8252 57.5472 98.8225 57.9672ZM106.952 54.9747L108.347 54.9837L108.307 61.1936L106.912 61.1846L106.952 54.9747ZM106.861 52.7241C106.863 52.5041 106.949 52.3196 107.12 52.1707C107.301 52.0219 107.496 51.9481 107.706 51.9495C107.916 51.9509 108.101 52.0271 108.26 52.1781C108.429 52.3292 108.513 52.5147 108.511 52.7347C108.51 52.9647 108.424 53.1542 108.253 53.3031C108.092 53.442 107.906 53.5108 107.696 53.5095C107.486 53.5081 107.292 53.4319 107.113 53.2807C106.944 53.1296 106.86 52.9441 106.861 52.7241ZM111.378 52.2732L112.773 52.2822L112.755 55.0422L114.465 55.0532L114.458 56.1482L112.748 56.1372L112.715 61.2221L111.32 61.213L111.353 56.1282L110.213 56.1208L110.22 55.0258L111.36 55.0332L111.378 52.2732ZM118.69 61.4107C118.11 61.4069 117.581 61.2785 117.102 61.0254C116.634 60.7724 116.261 60.405 115.984 59.9232C115.717 59.4314 115.586 58.8356 115.591 58.1356C115.595 57.4456 115.744 56.8515 116.037 56.3534C116.331 55.8453 116.718 55.4578 117.2 55.1909C117.692 54.9241 118.227 54.7925 118.807 54.7963C119.387 54.8 119.877 54.9382 120.275 55.2108C120.673 55.4734 120.976 55.7853 121.184 56.1467L121.092 56.3861L121.236 55.067L122.526 55.0753L122.486 61.2852L121.091 61.2762L121.101 59.6562L121.249 60.0172C121.208 60.1169 121.117 60.2463 120.976 60.4054C120.845 60.5546 120.664 60.7084 120.433 60.8669C120.212 61.0255 119.956 61.1589 119.666 61.267C119.375 61.3651 119.05 61.413 118.69 61.4107ZM119.072 60.2581C119.422 60.2604 119.738 60.1974 120.018 60.0692C120.299 59.941 120.53 59.7625 120.712 59.5337C120.903 59.2949 121.035 59.0108 121.107 58.6812L121.115 57.4663C121.037 57.1658 120.899 56.9049 120.7 56.6836C120.502 56.4523 120.263 56.2757 119.984 56.1539C119.705 56.0221 119.395 55.9551 119.055 55.9529C118.685 55.9505 118.344 56.0383 118.033 56.2163C117.722 56.3943 117.47 56.6427 117.278 56.9615C117.096 57.2803 117.004 57.6547 117.001 58.0847C116.999 58.4847 117.091 58.8503 117.279 59.1815C117.467 59.5127 117.72 59.7744 118.039 59.9664C118.358 60.1585 118.702 60.2557 119.072 60.2581ZM124.975 49.691L126.37 49.7001L126.295 61.3098L124.9 61.3008L124.975 49.691Z" fill="#F5F5F5"/>
</svg>
