<svg width="102" height="63" fill="none" xmlns="http://www.w3.org/2000/svg"><path d="M35.553 21.755a2.516 2.516 0 01-.102-.109l-14.27-16.17a2.385 2.385 0 011.142-3.873c.222-.063 5.522-1.527 12.125-.824C43.37 1.73 50.4 6.176 54.78 13.636a2.386 2.386 0 01-1.294 3.467l-15.484 5.225a2.386 2.386 0 01-2.449-.573z" fill="#A395FF"/><path d="M21.283 60.564a2.385 2.385 0 01-.102-3.265l14.27-16.17a2.386 2.386 0 012.551-.681l15.484 5.225a2.385 2.385 0 011.294 3.468c-4.379 7.46-11.41 11.906-20.332 12.856-6.602.703-11.902-.761-12.125-.824a2.384 2.384 0 01-1.04-.61z" fill="#4B39BE"/><path d="M86.352 42.293v-21.81c0-.874-.479-1.678-1.246-2.095-9.46-5.141-18.84-7.747-27.879-7.747a48.43 48.43 0 00-5.727.346c-5.566.665-11.297 2.302-17.032 4.866-3.655 1.634-7.31 3.645-10.866 5.976-6.21 4.072-9.951 7.7-10.107 7.852a2.386 2.386 0 00-.021 3.393l.02.021c.157.153 3.899 3.78 10.108 7.852 3.555 2.331 7.21 4.342 10.866 5.977 5.735 2.563 11.465 4.2 17.03 4.865 1.916.23 3.843.346 5.73.346 9.04 0 18.419-2.606 27.878-7.747a2.384 2.384 0 001.246-2.095z" fill="#E1F1FA"/><path d="M27.295 39.558v-16.34c0-1.207-.9-2.223-2.098-2.368a23.175 23.175 0 00-2.781-.17c-11.37 0-20.354 8.633-20.73 9a2.382 2.382 0 000 3.416c.376.367 9.36 9 20.73 9 .914 0 1.85-.058 2.78-.17a2.385 2.385 0 002.1-2.368z" fill="#FFF261"/><path d="M34.936 15.646H24.91a2.383 2.383 0 00-2.384 2.385v26.714a2.382 2.382 0 002.384 2.385h10.026V15.645z" fill="#1B3B6B"/><path d="M57.812 36.533a7.229 7.229 0 01-2.13-5.145c0-4.012 3.263-7.275 7.275-7.276 1.943 0 3.77.757 5.145 2.131a7.229 7.229 0 012.13 5.145c0 1.944-.756 3.77-2.13 5.145a7.228 7.228 0 01-5.145 2.131 7.229 7.229 0 01-5.145-2.131z" fill="#06CCAB"/><path d="M56.163 38.182a9.545 9.545 0 01-2.814-6.794c0-5.298 4.31-9.608 9.608-9.608 2.566 0 4.98 1 6.794 2.814a9.548 9.548 0 012.814 6.794c0 2.567-1 4.98-2.814 6.794a9.545 9.545 0 01-6.794 2.814c-2.567 0-4.98-1-6.794-2.814zm10.215-10.215a4.808 4.808 0 00-3.421-1.417 4.845 4.845 0 00-4.839 4.838c0 1.292.504 2.508 1.417 3.421a4.807 4.807 0 003.422 1.417 4.807 4.807 0 003.42-1.417 4.806 4.806 0 001.418-3.421 4.806 4.806 0 00-1.417-3.421z" fill="#1B3B6B"/><path d="M101.68 31.388c0-.643-.26-1.265-.721-1.708-.253-.247-6.315-6.108-15.853-11.292v26c9.538-5.184 15.6-11.045 15.853-11.292a2.383 2.383 0 00.721-1.708z" fill="#A395FF"/><path d="M86.352 42.292V31.388H12.775c0 .632.251 1.239.698 1.686l.021.02c.156.154 3.898 3.78 10.108 7.853 3.555 2.33 7.21 4.341 10.866 5.976 5.735 2.564 11.465 4.201 17.03 4.866a48.27 48.27 0 005.729.346c9.04 0 18.42-2.606 27.878-7.748a2.383 2.383 0 001.246-2.095z" fill="#CDEBFC"/><path d="M27.295 39.558v-8.17H.965c0 .633.251 1.24.698 1.687l.021.02c.377.369 9.362 9 20.732 9 .914 0 1.85-.056 2.78-.17a2.384 2.384 0 002.1-2.367z" fill="#FDBF00"/><path d="M34.935 31.388h-12.41v13.358a2.385 2.385 0 002.385 2.384h10.025V31.388z" fill="#001035"/><path d="M70.233 31.388H55.68c0 1.943.757 3.77 2.131 5.145a7.229 7.229 0 005.145 2.131c1.944 0 3.77-.757 5.145-2.13a7.232 7.232 0 002.13-5.146z" fill="#1CADB5"/><path d="M72.565 31.388h-4.77a4.806 4.806 0 01-1.417 3.421 4.807 4.807 0 01-3.422 1.417 4.807 4.807 0 01-3.42-1.417 4.807 4.807 0 01-1.418-3.421h-4.77c0 2.566 1 4.979 2.814 6.794a9.547 9.547 0 006.794 2.814c2.567 0 4.98-1 6.794-2.814a9.547 9.547 0 002.815-6.794z" fill="#001035"/><path d="M101.68 31.387H85.106v13c9.538-5.183 15.6-11.044 15.853-11.292a2.383 2.383 0 00.721-1.708z" fill="#4B39BE"/></svg>